<svg xmlns="http://www.w3.org/2000/svg" width="24" height="24" viewBox="0 0 24 24">
  <metadata><?xpacket begin="﻿" id="W5M0MpCehiHzreSzNTczkc9d"?>
<x:xmpmeta xmlns:x="adobe:ns:meta/" x:xmptk="Adobe XMP Core 5.6-c142 79.160924, 2017/07/13-01:06:39        ">
   <rdf:RDF xmlns:rdf="http://www.w3.org/1999/02/22-rdf-syntax-ns#">
      <rdf:Description rdf:about=""/>
   </rdf:RDF>
</x:xmpmeta>
                                                                                                    
                                                                                                    
                                                                                                    
                                                                                                    
                                                                                                    
                                                                                                    
                                                                                                    
                                                                                                    
                                                                                                    
                                                                                                    
                                                                                                    
                                                                                                    
                                                                                                    
                                                                                                    
                                                                                                    
                                                                                                    
                                                                                                    
                                                                                                    
                                                                                                    
                                                                                                    
                           
<?xpacket end="w"?></metadata>
<defs>
    <style>
      .cls-1 {
        fill-rule: evenodd;
      }
    </style>
  </defs>
  <path id="google_plus" data-name="google plus" class="cls-1" d="M277,6082.75h-3.75v-3.73h-1.5v3.73H268v1.52h3.75V6088h1.5v-3.73H277v-1.52Zm-13.418,8.3c-0.572-.41-1.666-1.39-1.666-1.97,0-.68.194-1.01,1.215-1.81a4.151,4.151,0,0,0,1.858-3.21,3.924,3.924,0,0,0-2.111-3.56h2.007l1.416-1.5h-6.329c-2.838,0-5.509,2.29-5.509,4.78a4.627,4.627,0,0,0,4.821,4.67c0.2,0,.4.03,0.587,0.02a2.659,2.659,0,0,0-.321,1.2,2.481,2.481,0,0,0,.861,1.76c-0.363,0-.714.01-1.1,0.01-3.515,0-6.314,2.24-6.314,4.56,0,2.29,3.059,4,6.575,4,4.007,0,6.173-2.55,6.173-4.84A4.367,4.367,0,0,0,263.582,6091.05Zm-3.382-3.17c-1.631-.05-3.181-1.83-3.462-3.97s0.812-3.78,2.442-3.73,3.251,1.77,3.533,3.91S261.83,6087.93,260.2,6087.88Zm-0.638,10.64c-2.43,0-4.185-1.35-4.185-3.19,0-1.81,2.177-3.32,4.607-3.3a5.252,5.252,0,0,1,1.574.26c1.319,0.91,2.265,1.43,2.532,2.48a2.82,2.82,0,0,1,.078.65C264.168,6097.27,262.977,6098.52,259.562,6098.52Z" transform="translate(-253 -6077.5)" fill="#ffffff"/>
</svg>
