<svg xmlns="http://www.w3.org/2000/svg" width="24" height="24" viewBox="0 0 24 24">
  <metadata><?xpacket begin="﻿" id="W5M0MpCehiHzreSzNTczkc9d"?>
<x:xmpmeta xmlns:x="adobe:ns:meta/" x:xmptk="Adobe XMP Core 5.6-c142 79.160924, 2017/07/13-01:06:39        ">
   <rdf:RDF xmlns:rdf="http://www.w3.org/1999/02/22-rdf-syntax-ns#">
      <rdf:Description rdf:about=""/>
   </rdf:RDF>
</x:xmpmeta>
                                                                                                    
                                                                                                    
                                                                                                    
                                                                                                    
                                                                                                    
                                                                                                    
                                                                                                    
                                                                                                    
                                                                                                    
                                                                                                    
                                                                                                    
                                                                                                    
                                                                                                    
                                                                                                    
                                                                                                    
                                                                                                    
                                                                                                    
                                                                                                    
                                                                                                    
                                                                                                    
                           
<?xpacket end="w"?></metadata>
<defs>
    <style>
      .cls-1 {
        fill-rule: evenodd;
      }
    </style>
  </defs>
  <path id="Instagram" class="cls-1" d="M391.5,6099.75h-15a4.5,4.5,0,0,1-4.5-4.5v-15a4.5,4.5,0,0,1,4.5-4.5h15a4.5,4.5,0,0,1,4.5,4.5v15A4.5,4.5,0,0,1,391.5,6099.75Zm-18-4.5a3,3,0,0,0,3,3h15a3,3,0,0,0,3-3v-12h-21v12ZM390.75,6078h1.5a1.5,1.5,0,0,1,1.5,1.5v0.75a1.5,1.5,0,0,1-1.5,1.5h-1.5a1.5,1.5,0,0,1-1.5-1.5v-0.75A1.5,1.5,0,0,1,390.75,6078Zm-6.75,3.63a6.12,6.12,0,1,1-6.121,6.12A6.12,6.12,0,0,1,384,6081.63Zm0,2.3a4.57,4.57,0,1,1-4.568,4.57A4.571,4.571,0,0,1,384,6083.93ZM373.5,6075H375v9h-1.5v-9Zm3-.75H378V6084h-1.5v-9.75Zm7.5,11.2a3.05,3.05,0,1,1-3.046,3.05A3.051,3.051,0,0,1,384,6085.45Z" transform="translate(-372 -6075.75)"/>
</svg>
