<svg xmlns="http://www.w3.org/2000/svg" width="24" height="24" viewBox="0 0 24 24">
  <metadata><?xpacket begin="﻿" id="W5M0MpCehiHzreSzNTczkc9d"?>
<x:xmpmeta xmlns:x="adobe:ns:meta/" x:xmptk="Adobe XMP Core 5.6-c142 79.160924, 2017/07/13-01:06:39        ">
   <rdf:RDF xmlns:rdf="http://www.w3.org/1999/02/22-rdf-syntax-ns#">
      <rdf:Description rdf:about=""/>
   </rdf:RDF>
</x:xmpmeta>
                                                                                                    
                                                                                                    
                                                                                                    
                                                                                                    
                                                                                                    
                                                                                                    
                                                                                                    
                                                                                                    
                                                                                                    
                                                                                                    
                                                                                                    
                                                                                                    
                                                                                                    
                                                                                                    
                                                                                                    
                                                                                                    
                                                                                                    
                                                                                                    
                                                                                                    
                                                                                                    
                           
<?xpacket end="w"?></metadata>
<defs>
    <style>
      .cls-1 {
        fill-rule: evenodd;
      }
    </style>
  </defs>
  <path id="twitter" class="cls-1" d="M216,6081.4a8.38,8.38,0,0,1-2.746.8,5.357,5.357,0,0,0,2.063-2.76,7.865,7.865,0,0,1-3.088,1.13h0a4.868,4.868,0,0,0-3.579-1.57,5.014,5.014,0,0,0-4.951,5.08,5.156,5.156,0,0,0,.125,1.13h0a13.609,13.609,0,0,1-10.207-5.27,5.158,5.158,0,0,0,1.5,6.71,3.122,3.122,0,0,1-2.162-.57,4.874,4.874,0,0,0,3.819,4.96,3.822,3.822,0,0,1-2.061.16c0.157,1.49,2.2,3.45,4.426,3.45a8.656,8.656,0,0,1-7.14,2.1,14.533,14.533,0,0,0,7.745,2.25,13.953,13.953,0,0,0,13.858-14.83,0.151,0.151,0,0,1,0-.03c0-.02,0-0.04,0-0.06s0-.05,0-0.08A8.639,8.639,0,0,0,216,6081.4Z" transform="translate(-192 -6077)"/>
</svg>
